# xmcd
#
# Track frame offsets:
#	150
#	1782
#	23807
#	34052
#	50797
#
# Disc length: 705 seconds
#
# Revision: 0
# Processed by: cddbd v1.5.1PL0 Copyright (c) Steve Scherf et al.
# Submitted via: dBpowerAMP V4.0
#
DISCID=3302bf05
DTITLE=BLUES - LES INCONTOURNABLES 
DYEAR=1900
DGENRE=Blues
TTITLE0=NEW ORLEANS, 23H02
TTITLE1=ELLA FITZGERALD and LOUIS ARMSTRONG - Summertime
TTITLE2=FATS DOMINO - Blueberry hill
TTITLE3=THE OSCAR PETERSON TRIO - Georgia on my mind
TTITLE4=NEW ORLEANS, 03H13
EXTD=LES INCONTOURNABLES hors commerce
EXTT0=
EXTT1=
EXTT2=
EXTT3=
EXTT4=
PLAYORDER=
